<?xml version="1.0" standalone="no"?>
<!DOCTYPE svg PUBLIC "-//W3C//DTD SVG 20010904//EN"
 "http://www.w3.org/TR/2001/REC-SVG-20010904/DTD/svg10.dtd">
<svg version="1.0" xmlns="http://www.w3.org/2000/svg"
 width="1943.000000pt" height="1924.000000pt" viewBox="0 0 1943.000000 1924.000000"
 preserveAspectRatio="xMidYMid meet">

<g transform="translate(0.000000,1924.000000) scale(0.100000,-0.100000)"
fill="#000000" stroke="none">
<path d="M9190 19139 c-1899 -101 -3718 -755 -5240 -1882 -389 -289 -711 -567
-1076 -931 -283 -284 -479 -501 -699 -776 -1187 -1482 -1900 -3264 -2055
-5135 -41 -498 -41 -1104 0 -1590 159 -1883 867 -3652 2055 -5135 220 -275
416 -492 699 -776 365 -364 687 -642 1076 -931 1445 -1070 3157 -1714 4955
-1863 493 -40 1127 -40 1620 0 1798 149 3510 793 4955 1863 389 289 711 567
1076 931 283 284 479 501 699 776 1176 1468 1887 3231 2049 5080 47 529 49
1135 6 1645 -159 1883 -867 3652 -2055 5135 -410 512 -938 1042 -1452 1457
-1508 1218 -3341 1952 -5278 2113 -359 29 -976 38 -1335 19z m1070 -1329
c1866 -127 3573 -835 4980 -2066 173 -151 582 -560 729 -729 750 -859 1290
-1798 1636 -2840 549 -1655 549 -3455 0 -5110 -611 -1844 -1878 -3426 -3560
-4447 -1050 -637 -2255 -1039 -3480 -1162 -546 -55 -1154 -55 -1700 0 -2845
285 -5349 2017 -6615 4574 -862 1742 -1066 3739 -575 5635 318 1232 916 2353
1786 3350 147 169 556 578 729 729 1125 984 2438 1633 3886 1922 440 87 840
134 1364 158 128 6 657 -3 820 -14z"/>
<path d="M9490 16699 c-118 -60 -222 -115 -230 -123 -33 -30 -385 -190 -620
-281 -389 -152 -884 -298 -1253 -371 -86 -17 -88 -17 -83 -43 13 -71 17 -161
7 -161 -7 0 -11 -35 -11 -99 0 -96 1 -100 23 -103 18 -2 23 -10 25 -42 l3 -38
38 6 c37 6 39 4 74 -47 56 -81 132 -153 231 -219 172 -115 361 -328 599 -678
496 -729 840 -1556 1016 -2445 75 -379 114 -716 133 -1152 l12 -283 40 -1 c29
-1 9 -7 -64 -20 -88 -17 -209 -52 -281 -83 -14 -6 -20 7 -38 83 -35 155 -69
357 -106 631 -96 722 -108 792 -181 1064 -172 645 -426 1217 -781 1761 -131
199 -225 318 -373 466 -290 291 -571 452 -927 531 -83 19 -129 22 -308 22
-235 0 -326 -14 -521 -79 -593 -197 -1087 -712 -1237 -1290 -43 -165 -58 -279
-64 -490 -7 -276 16 -480 94 -832 4 -19 -1 -23 -38 -33 -444 -113 -870 -333
-1139 -586 -497 -469 -699 -1272 -488 -1934 100 -314 317 -609 588 -803 112
-79 375 -212 510 -257 342 -113 680 -155 1250 -154 444 0 703 26 1127 109 384
76 556 127 1023 303 384 145 560 206 732 256 230 65 203 66 217 -5 7 -34 23
-94 37 -133 13 -39 24 -74 24 -78 0 -12 -558 -284 -722 -352 -980 -404 -1983
-579 -3088 -536 -425 16 -637 55 -971 181 -89 33 -237 80 -328 104 -91 24
-186 51 -211 61 -64 25 -126 69 -153 109 l-23 34 -87 -49 -87 -49 -46 16 c-25
8 -47 14 -49 11 -2 -2 21 -89 51 -193 120 -417 248 -945 338 -1395 79 -401
194 -1119 181 -1140 -3 -5 25 -25 62 -46 731 -400 1373 -921 1865 -1514 l83
-100 13 27 c8 15 17 21 21 15 4 -7 38 9 89 41 69 44 82 55 76 72 -18 58 -15
84 25 190 48 128 57 173 70 360 16 224 69 403 228 775 239 559 563 1101 937
1569 309 386 689 770 1075 1085 229 187 717 536 749 536 5 0 28 -24 50 -52 52
-68 102 -120 177 -185 l59 -51 -79 -84 c-127 -133 -304 -296 -540 -496 -555
-469 -583 -495 -786 -720 -415 -459 -681 -847 -948 -1382 -130 -262 -205 -444
-256 -620 -172 -596 -109 -1116 188 -1555 78 -115 282 -319 407 -407 197 -139
498 -269 736 -317 240 -49 548 -53 749 -11 385 81 793 313 1135 646 l105 103
122 -118 c368 -358 763 -586 1158 -671 141 -30 434 -38 601 -16 387 51 755
214 1034 458 262 230 440 539 511 886 41 203 36 512 -12 755 -52 258 -127 462
-303 822 -269 548 -542 948 -973 1425 -164 182 -231 243 -653 605 -294 251
-657 596 -725 688 l-29 39 63 55 c34 30 81 79 105 109 l44 53 144 -88 c1002
-610 1781 -1391 2426 -2433 348 -562 449 -802 541 -1288 11 -58 39 -166 62
-239 32 -104 39 -139 31 -156 -8 -17 -5 -31 14 -65 28 -50 32 -131 9 -187 -8
-19 -15 -39 -15 -42 0 -4 39 -29 86 -56 l86 -48 27 34 c14 19 57 70 96 114
374 427 787 787 1275 1111 198 131 546 334 573 334 19 0 33 19 29 41 -2 9 13
121 33 250 120 779 276 1568 450 2276 29 120 52 219 51 220 -1 1 -48 -10 -103
-24 l-102 -27 -52 28 -51 29 -24 -31 c-29 -36 -57 -46 -189 -67 -131 -20 -149
-26 -288 -96 -235 -119 -468 -174 -947 -223 -395 -41 -923 -46 -1300 -11 -794
72 -1563 274 -2324 612 -211 93 -426 200 -426 212 0 5 10 30 22 57 12 27 31
83 43 124 22 75 22 75 55 72 128 -13 511 -131 1000 -307 464 -167 607 -209
945 -275 421 -82 732 -113 1140 -113 603 -1 1024 58 1370 190 841 321 1253
1081 1074 1983 -48 243 -177 543 -317 740 -235 332 -631 597 -1140 762 -145
47 -163 55 -159 73 2 11 20 72 40 135 118 385 148 811 81 1140 -93 449 -414
899 -825 1155 -333 207 -691 299 -1043 267 -317 -29 -588 -128 -878 -321 -290
-194 -505 -412 -825 -838 -333 -442 -581 -889 -803 -1448 -86 -215 -129 -356
-236 -769 -99 -385 -158 -592 -218 -766 -49 -142 -104 -278 -116 -285 -4 -2
-44 1 -89 7 l-81 12 0 101 c0 140 17 398 41 610 116 1043 487 2028 1136 3017
162 246 334 435 571 625 78 63 203 174 278 248 75 73 151 141 170 150 19 9 34
20 34 25 0 8 71 32 133 45 27 5 27 6 27 83 l1 77 108 145 c67 90 104 147 97
151 -6 3 -51 14 -101 23 -765 147 -1712 476 -2393 831 -68 36 -127 65 -131 64
-3 -1 -103 -50 -221 -110z m565 -584 c435 -227 920 -431 1409 -592 127 -42
233 -78 235 -80 10 -8 -233 -235 -335 -313 -235 -182 -437 -404 -619 -680
-518 -788 -867 -1590 -1050 -2409 -37 -170 -85 -437 -85 -479 0 -66 -18 8 -39
158 -138 1002 -503 1972 -1058 2815 -280 425 -479 655 -698 808 -93 65 -176
142 -163 151 1 1 75 20 163 40 602 143 1275 394 1810 675 l130 68 60 -34 c33
-18 141 -76 240 -128z m-3505 -1325 c391 -42 737 -245 1052 -620 225 -267 548
-834 713 -1250 127 -321 259 -764 309 -1040 14 -80 46 -302 71 -495 64 -498
101 -717 159 -941 l23 -91 -72 -71 c-66 -65 -74 -70 -86 -55 -24 29 -126 89
-172 102 l-44 13 -6 63 c-12 159 -132 308 -322 400 -106 51 -166 65 -280 65
-227 0 -385 -134 -385 -326 0 -192 170 -397 393 -473 114 -39 281 -47 358 -16
12 4 25 -8 49 -45 38 -60 101 -117 165 -151 37 -19 45 -28 40 -44 -4 -11 -14
-56 -23 -101 l-17 -80 -135 -33 c-179 -44 -473 -142 -868 -290 -388 -146 -519
-190 -677 -229 -359 -90 -698 -146 -1039 -173 -197 -15 -770 -6 -964 16 -512
57 -893 215 -1157 480 -157 156 -250 307 -319 515 -52 157 -70 278 -69 465 2
492 215 960 568 1244 265 213 620 374 1025 465 l105 23 0 73 0 73 43 15 c37
12 43 18 39 36 -3 11 -21 82 -41 156 -122 461 -122 912 0 1261 43 124 79 197
152 309 249 384 657 663 1072 734 157 27 212 29 340 16z m6781 -66 c528 -90
1014 -505 1197 -1024 111 -316 100 -726 -32 -1160 -47 -156 -52 -167 -74 -172
-15 -4 -20 -18 -25 -68 -4 -35 -18 -87 -31 -117 -14 -29 -21 -53 -15 -53 5 0
14 -11 18 -24 8 -18 19 -25 58 -30 26 -3 75 -22 108 -40 53 -31 60 -33 71 -18
11 15 22 14 125 -16 395 -115 746 -317 965 -555 275 -301 440 -796 404 -1213
-32 -361 -147 -616 -389 -854 -131 -131 -239 -206 -405 -286 -324 -154 -679
-218 -1286 -231 -462 -10 -872 33 -1365 143 -218 49 -319 81 -787 248 -524
187 -732 249 -1045 312 -18 3 -23 11 -23 33 0 27 -22 152 -35 196 -5 16 3 25
41 44 67 36 141 106 176 168 19 33 36 52 44 49 7 -3 41 -10 76 -16 243 -45
534 102 644 325 35 70 39 89 42 166 4 77 1 95 -21 142 -32 71 -86 123 -166
161 -64 30 -70 31 -201 31 -120 -1 -142 -4 -202 -27 -100 -38 -174 -85 -248
-158 -84 -84 -129 -171 -143 -279 -11 -79 -11 -80 -44 -86 -52 -9 -113 -39
-164 -77 l-46 -36 -80 78 c-68 65 -237 189 -276 203 -9 3 -8 13 1 38 129 328
171 465 310 999 123 472 155 578 232 770 254 636 503 1066 915 1580 278 347
531 567 820 712 116 59 298 121 405 138 41 6 82 13 90 15 51 10 279 3 361 -11z
m-3126 -6229 c-22 -19 -43 -34 -47 -35 -19 -1 -3 -29 61 -104 125 -147 390
-396 746 -700 379 -324 540 -479 737 -712 344 -403 565 -737 788 -1189 235
-478 321 -776 323 -1120 2 -395 -125 -703 -398 -971 -227 -222 -516 -363 -880
-431 -138 -25 -410 -23 -542 5 -392 84 -815 354 -1151 733 l-95 108 -28 -19
c-35 -26 -36 -25 -88 14 l-44 33 -186 -187 c-261 -262 -474 -417 -731 -531
-213 -95 -384 -132 -605 -132 -163 0 -255 11 -410 50 -291 72 -528 201 -731
395 -273 263 -404 576 -404 967 0 359 90 662 345 1166 239 471 492 835 882
1268 153 170 261 270 553 516 456 385 628 541 806 734 l90 98 85 -24 c46 -14
103 -28 127 -32 23 -4 42 -10 42 -13 0 -4 -7 -27 -16 -52 -8 -24 -17 -77 -19
-116 -2 -67 -5 -75 -45 -125 -214 -269 -152 -734 116 -869 37 -19 69 -26 132
-28 77 -4 88 -2 147 27 111 55 202 179 240 326 20 78 20 249 -1 328 -19 75
-54 146 -105 214 -35 47 -39 58 -39 110 0 53 -15 130 -34 174 -6 14 2 18 41
23 66 10 239 68 310 105 74 38 76 38 28 -4z m-2561 -97 c-260 -224 -573 -532
-765 -753 -523 -601 -933 -1267 -1229 -1996 -128 -314 -172 -477 -191 -697 -6
-70 -12 -128 -12 -129 -1 0 -40 45 -87 100 -123 147 -532 554 -695 693 -250
213 -509 406 -777 579 l-108 69 0 129 c0 475 -90 1204 -214 1729 -19 80 -21
98 -10 98 8 0 72 -22 142 -49 348 -135 568 -175 1052 -192 788 -28 1552 54
2256 242 170 45 615 188 654 209 29 17 22 1 -16 -32z m4297 -113 c1025 -313
2098 -394 3154 -239 281 42 475 93 615 164 34 17 63 30 64 28 2 -2 -21 -88
-49 -193 -155 -563 -248 -1177 -262 -1738 l-6 -239 -33 6 c-29 6 -46 -2 -146
-70 -412 -280 -829 -634 -1135 -966 -78 -84 -151 -164 -162 -178 l-19 -25 -12
30 c-18 46 -56 207 -80 340 -56 302 -159 565 -355 910 -404 712 -857 1308
-1376 1809 -133 129 -222 208 -475 423 l-49 42 75 -25 c41 -14 154 -49 251
-79z"/>
</g>
</svg>
