<?xml version="1.0" standalone="no"?>
<!DOCTYPE svg PUBLIC "-//W3C//DTD SVG 20010904//EN"
 "http://www.w3.org/TR/2001/REC-SVG-20010904/DTD/svg10.dtd">
<svg version="1.0" xmlns="http://www.w3.org/2000/svg"
 width="225.000000pt" height="225.000000pt" viewBox="0 0 225.000000 225.000000"
 preserveAspectRatio="xMidYMid meet">

<g transform="translate(0.000000,225.000000) scale(0.100000,-0.100000)"
fill="#000000" stroke="none">
<path d="M1340 1997 c0 -8 14 -20 30 -27 30 -12 41 -29 18 -26 -7 0 -13 -3
-13 -9 0 -5 5 -9 10 -7 6 1 1 -5 -10 -13 -18 -14 -20 -13 -31 6 -15 30 -64 35
-64 8 0 -11 7 -22 15 -26 9 -3 24 -22 35 -42 12 -23 19 -30 20 -18 0 24 -18
56 -44 80 l-21 19 24 -14 c13 -8 32 -29 42 -47 23 -44 33 -52 20 -18 -14 36
-14 35 5 33 10 0 21 10 26 26 8 22 5 33 -11 54 -12 15 -21 23 -21 19 0 -4 -7
-2 -15 5 -12 10 -15 10 -15 -3z"/>
<path d="M1272 1973 c-39 -33 -38 -66 2 -111 38 -42 40 -72 4 -72 -12 0 -17 4
-12 13 4 6 3 9 -1 4 -5 -4 -16 0 -26 9 -10 9 -25 14 -34 11 -26 -10 -17 -41
20 -66 63 -43 156 -16 154 43 0 20 -1 20 -9 -1 -5 -12 -26 -29 -46 -38 -34
-14 -41 -14 -69 0 -18 8 -38 22 -46 31 -12 14 -11 16 6 13 11 -3 19 -9 18 -14
-3 -12 43 -26 62 -18 36 13 25 74 -20 115 -30 28 -26 50 11 66 17 8 32 8 51 1
27 -10 27 -10 8 10 -22 26 -46 27 -73 4z"/>
<path d="M710 1955 l-45 -13 48 -1 c51 -1 87 -26 87 -60 0 -21 -25 -46 -37
-38 -5 3 -9 -3 -10 -13 -3 -31 45 -3 52 30 8 36 -22 101 -43 92 -10 -3 -13 -1
-8 6 4 7 6 12 4 11 -2 -1 -23 -7 -48 -14z"/>
<path d="M885 1939 c4 -5 2 -9 -4 -9 -15 0 -41 -30 -41 -47 0 -12 7 -9 25 11
29 31 59 33 82 6 26 -30 38 -24 18 8 l-18 27 31 -29 c30 -28 31 -28 25 -5 -8
30 -34 50 -52 39 -8 -4 -27 -4 -43 1 -17 5 -26 4 -23 -2z"/>
<path d="M674 1923 c-25 -3 -31 -9 -31 -27 0 -23 0 -23 18 -5 23 23 57 24 81
2 17 -15 18 -15 18 4 0 18 -31 37 -50 31 -3 -1 -19 -3 -36 -5z"/>
<path d="M1485 1916 c-11 -7 -24 -14 -30 -14 -13 0 -45 -62 -45 -87 0 -13 7
-6 19 20 30 67 63 82 115 54 40 -21 45 -18 19 14 -22 27 -52 32 -78 13z"/>
<path d="M1560 1923 c1 -10 47 -63 54 -63 9 0 -15 54 -27 62 -15 10 -27 10
-27 1z"/>
<path d="M545 1871 c-7 -12 0 -14 28 -12 9 1 17 -2 17 -7 0 -5 7 -9 15 -9 9 0
15 7 13 16 -4 19 -63 28 -73 12z"/>
<path d="M710 1870 c12 -10 11 -11 -8 -7 -15 4 -22 1 -19 -6 5 -17 42 -15 42
2 0 8 -7 16 -15 18 -13 4 -13 3 0 -7z"/>
<path d="M880 1865 c0 -9 6 -12 15 -9 8 4 15 1 15 -7 0 -7 2 -10 5 -7 3 3 3
13 -1 22 -8 20 -34 21 -34 1z"/>
<path d="M463 1863 c-16 -6 -17 -33 -3 -33 11 0 26 28 19 34 -2 2 -10 1 -16
-1z"/>
<path d="M1500 1860 c13 -8 13 -10 -2 -10 -33 0 -53 -81 -26 -108 14 -14 54
-16 63 -2 3 5 12 7 20 4 8 -4 12 -10 9 -15 -3 -5 0 -9 5 -9 15 0 13 11 -4 34
-12 16 -18 17 -27 8 -14 -14 -52 -16 -43 -2 3 6 -1 7 -9 4 -27 -10 -20 43 9
68 24 21 25 38 2 38 -7 0 -6 -4 3 -10z"/>
<path d="M1679 1849 c-24 -12 -41 -29 -48 -50 -15 -45 -13 -60 4 -22 15 36 56
66 82 61 9 -2 28 -18 40 -37 26 -38 31 -26 8 19 -8 16 -11 30 -7 33 4 2 1 2
-7 0 -7 -2 -19 0 -25 5 -6 5 -26 1 -47 -9z"/>
<path d="M642 1840 c0 -14 2 -19 5 -12 2 6 2 18 0 25 -3 6 -5 1 -5 -13z"/>
<path d="M490 1835 c0 -8 5 -15 10 -15 6 0 10 7 10 15 0 8 -4 15 -10 15 -5 0
-10 -7 -10 -15z"/>
<path d="M553 1839 c-29 -11 -30 -29 -2 -22 12 4 25 0 30 -8 7 -11 9 -9 9 8 0
27 -9 33 -37 22z"/>
<path d="M1607 1826 c-5 -12 -13 -13 -39 -5 -47 13 -56 12 -69 -13 -11 -20
-10 -21 3 -11 10 9 24 10 49 3 48 -14 57 -13 64 11 8 24 0 37 -8 15z"/>
<path d="M1770 1835 c0 -3 9 -22 21 -43 15 -27 19 -30 15 -12 -3 14 -6 30 -6
36 0 7 -7 14 -15 18 -8 3 -15 3 -15 1z"/>
<path d="M293 1823 c-12 -2 -24 -11 -27 -20 -5 -11 -2 -13 11 -8 10 4 38 10
62 13 35 4 47 1 58 -13 10 -15 13 -15 13 -4 0 34 -43 46 -117 32z"/>
<path d="M706 1814 c-4 -9 1 -14 14 -14 23 0 27 15 6 23 -8 3 -17 -1 -20 -9z"/>
<path d="M995 1798 c-7 -22 -22 -39 -46 -52 -49 -27 -83 -16 -102 31 -14 34
-16 35 -16 12 -1 -32 40 -79 70 -79 40 0 91 32 105 66 16 38 18 54 6 54 -4 0
-12 -15 -17 -32z"/>
<path d="M435 1798 c-3 -13 -1 -35 5 -48 9 -22 10 -21 5 11 -7 46 20 64 35 24
13 -34 20 -32 11 3 -10 36 -48 43 -56 10z"/>
<path d="M870 1803 c0 -11 9 -28 20 -38 16 -15 22 -15 35 -5 8 7 15 20 15 29
-1 14 -2 14 -14 -2 -13 -17 -15 -16 -35 9 -19 24 -21 24 -21 7z"/>
<path d="M1346 1811 c-4 -7 -5 -15 -2 -18 9 -9 19 4 14 18 -4 11 -6 11 -12 0z"/>
<path d="M1870 1811 c0 -16 28 -20 40 -5 10 12 8 14 -14 14 -14 0 -26 -4 -26
-9z"/>
<path d="M622 1782 c-2 -38 -70 -112 -103 -112 -13 0 -18 4 -13 12 4 6 3 8 -4
4 -6 -3 -20 4 -31 16 -12 12 -21 17 -21 11 0 -19 34 -51 63 -57 23 -6 35 0 73
36 42 40 45 47 41 83 -3 36 -4 37 -5 7z"/>
<path d="M1671 1778 c-20 -56 -6 -113 25 -101 18 6 44 54 44 80 0 11 -7 5 -18
-16 -22 -44 -39 -50 -48 -15 -5 21 -2 31 14 45 26 20 27 25 8 32 -10 4 -18 -5
-25 -25z"/>
<path d="M1845 1801 c3 -5 1 -12 -5 -16 -5 -3 -10 -18 -9 -33 l1 -27 7 25 c4
15 14 24 24 24 20 -2 22 7 5 24 -14 14 -32 16 -23 3z"/>
<path d="M318 1790 c-39 -7 -88 -35 -88 -50 0 -5 21 3 47 17 44 25 47 26 75
10 28 -16 28 -16 17 6 -14 27 -7 25 -51 17z"/>
<path d="M539 1775 c-3 -24 -8 -29 -26 -27 -13 2 -23 -2 -23 -7 0 -15 45 -14
57 2 5 6 7 23 3 37 -7 25 -7 25 -11 -5z"/>
<path d="M742 1765 c0 -16 2 -22 5 -12 2 9 2 23 0 30 -3 6 -5 -1 -5 -18z"/>
<path d="M1884 1758 c-12 -24 -13 -32 -4 -38 7 -4 9 -13 6 -19 -4 -6 -12 -9
-17 -6 -13 9 -11 -9 3 -23 22 -22 48 -14 59 18 12 32 16 35 36 22 10 -6 7 -19
-11 -52 -21 -39 -28 -45 -57 -46 -25 0 -41 7 -63 30 -26 28 -27 28 -16 6 24
-48 41 -60 86 -60 61 0 72 7 99 61 24 47 28 80 10 96 -4 5 -6 3 -2 -2 3 -6 -3
-16 -13 -23 -14 -9 -21 -8 -30 3 -19 23 -28 18 -44 -20 -8 -19 -20 -35 -25
-35 -17 0 -13 22 14 65 30 49 30 50 5 52 -13 1 -26 -9 -36 -29z m26 -8 c-6
-11 -13 -20 -16 -20 -2 0 0 9 6 20 6 11 13 20 16 20 2 0 0 -9 -6 -20z m84 -90
c-15 -27 -33 -50 -40 -50 -15 0 19 66 45 88 24 20 24 15 -5 -38z"/>
<path d="M652 1760 c0 -14 2 -19 5 -12 2 6 2 18 0 25 -3 6 -5 1 -5 -13z"/>
<path d="M1405 1750 c12 -41 34 -58 86 -69 54 -12 92 -3 103 24 11 30 6 40 -9
18 -15 -21 -62 -36 -70 -23 -3 5 -14 6 -25 3 -15 -4 -31 6 -57 33 -31 33 -35
35 -28 14z"/>
<path d="M1978 1763 c-24 -6 -23 -19 1 -26 15 -3 19 0 18 14 -1 11 -1 18 -2
18 0 -1 -8 -3 -17 -6z"/>
<path d="M402 1739 c-7 -11 -16 -18 -20 -15 -4 3 -9 -4 -9 -15 -2 -16 2 -17
17 -9 17 9 36 47 28 55 -2 2 -9 -5 -16 -16z"/>
<path d="M1764 1724 c-4 -16 -14 -34 -23 -41 -15 -11 -14 -12 1 -13 16 0 46
65 34 77 -3 3 -8 -8 -12 -23z"/>
<path d="M1801 1721 c-17 -41 -56 -71 -92 -71 -36 0 -60 10 -53 21 3 5 0 9 -6
9 -6 0 -15 10 -20 23 -9 22 -9 22 -9 1 -2 -52 71 -88 131 -65 27 10 73 82 66
103 -3 7 -10 -3 -17 -21z"/>
<path d="M123 1720 c-32 -13 -29 -21 6 -14 16 4 32 1 35 -5 4 -6 13 -8 19 -4
8 4 8 1 -1 -9 -7 -9 -25 -21 -41 -27 -15 -7 -28 -19 -28 -27 0 -10 4 -11 11
-4 5 5 17 10 26 10 27 0 53 35 45 60 -4 13 -12 19 -21 16 -8 -3 -14 -1 -14 4
0 12 -8 12 -37 0z"/>
<path d="M280 1718 c0 -23 18 -32 35 -18 19 16 19 27 0 27 -8 0 -15 -5 -15
-11 0 -6 -5 -4 -10 4 -8 13 -10 13 -10 -2z"/>
<path d="M745 1720 c-4 -7 -24 -10 -46 -8 -27 2 -39 0 -39 -9 0 -20 89 -17 97
2 7 19 -2 31 -12 15z"/>
<path d="M225 1701 c4 -13 8 -29 10 -35 1 -6 9 -28 19 -48 9 -21 16 -39 16
-41 0 -3 7 -21 15 -41 l15 -36 35 17 c36 17 48 42 19 39 -9 0 -20 10 -25 23
-10 24 -9 24 11 6 11 -10 20 -15 20 -10 0 4 7 2 15 -5 12 -10 20 -8 44 12 17
12 30 29 30 37 1 11 -2 11 -14 1 -12 -10 -22 -8 -52 11 -21 12 -46 29 -55 37
-15 13 -18 13 -18 1 0 -8 21 -27 46 -42 32 -19 44 -31 36 -39 -10 -10 -58 13
-74 37 -14 18 -8 -29 6 -57 8 -15 12 -29 8 -32 -12 -13 -31 -5 -38 17 -3 12
-15 42 -26 66 -11 24 -21 53 -24 64 -2 11 -9 25 -15 31 -8 8 -9 5 -4 -13z"/>
<path d="M2053 1693 c-26 -5 -31 -23 -7 -23 8 0 13 -4 9 -10 -3 -5 -12 -7 -20
-3 -29 11 -14 -15 15 -27 34 -14 35 -18 16 -45 -7 -11 -16 -33 -20 -50 -4 -16
-13 -33 -19 -38 -8 -5 -5 -13 12 -27 40 -34 59 -26 86 35 23 52 26 54 55 49
25 -6 31 -3 40 20 15 40 1 74 -25 58 -17 -11 -35 -11 -35 1 0 5 -3 8 -6 4 -8
-7 -84 32 -84 43 0 9 57 -10 93 -31 11 -6 21 -8 24 -5 8 8 -7 27 -17 21 -5 -3
-12 0 -17 7 -4 7 -15 14 -23 15 -8 1 -24 4 -35 6 -11 3 -30 3 -42 0z m46 -52
c30 -22 77 -36 104 -32 19 3 20 0 11 -23 -7 -17 -40 -22 -46 -6 -6 17 -24 -4
-49 -54 -28 -55 -37 -62 -62 -44 -16 12 -15 17 8 66 30 65 31 79 5 87 -11 4
-18 11 -15 16 8 13 13 12 44 -10z"/>
<path d="M2117 1589 c-9 -6 -17 -15 -17 -22 0 -7 -7 -24 -14 -39 -9 -16 -11
-30 -5 -33 5 -4 9 0 9 8 0 8 11 31 25 52 28 41 29 49 2 34z"/>
<path d="M81 1661 c-12 -16 -21 -37 -21 -48 1 -12 7 -7 19 16 10 19 31 40 47
47 l29 12 -27 1 c-19 1 -33 -8 -47 -28z"/>
<path d="M335 1680 c8 -13 65 -43 65 -34 0 3 -10 14 -22 25 -24 19 -53 26 -43
9z"/>
<path d="M190 1642 c0 -5 -10 -14 -22 -20 -15 -7 -18 -11 -7 -11 23 -1 55 24
41 33 -7 4 -12 3 -12 -2z"/>
<path d="M220 1630 c0 -5 5 -10 10 -10 6 0 10 5 10 10 0 6 -4 10 -10 10 -5 0
-10 -4 -10 -10z"/>
<path d="M989 1613 c-13 -16 -12 -17 4 -4 9 7 17 15 17 17 0 8 -8 3 -21 -13z"/>
<path d="M1014 1608 c-49 -38 -72 -68 -79 -100 -10 -43 4 -138 24 -173 19 -34
51 -121 51 -142 0 -8 -12 -13 -34 -13 -28 0 -36 5 -46 29 -7 17 -25 35 -42 42
-41 17 -79 -4 -92 -49 -5 -19 -15 -32 -25 -32 -30 0 -81 53 -95 100 l-15 45 6
-45 c10 -82 49 -130 105 -130 22 0 29 6 34 28 10 39 23 52 55 52 29 0 69 -33
69 -57 0 -7 3 -13 8 -13 10 -1 285 -1 300 -1 6 1 12 7 12 14 0 22 44 57 71 57
31 0 49 -17 49 -46 0 -37 21 -45 65 -25 58 26 79 69 73 154 -3 55 -8 71 -28
90 l-24 22 19 -23 c13 -16 20 -43 23 -87 4 -63 3 -66 -32 -101 -45 -45 -76
-44 -88 4 -17 64 -102 65 -130 1 -10 -23 -19 -29 -45 -29 -26 0 -33 4 -33 20
0 27 37 124 59 152 14 18 18 40 17 104 -1 89 -6 99 -70 146 -51 36 -119 39
-162 6z m102 -13 c5 -13 9 -13 21 -3 12 10 18 9 29 -6 7 -11 11 -23 8 -27 -3
-5 1 -9 9 -9 18 0 31 -30 18 -43 -14 -14 -46 -3 -45 16 1 9 -5 17 -12 17 -8 0
-17 6 -20 14 -3 8 -13 12 -26 8 -11 -3 -24 1 -29 9 -7 11 -9 10 -9 -4 0 -10
-7 -20 -15 -23 -8 -4 -15 -12 -15 -19 0 -7 -7 -18 -16 -25 -12 -11 -18 -10
-32 4 -16 16 -16 18 6 36 12 10 22 25 22 34 0 15 11 20 37 17 6 -1 14 3 18 9
10 15 45 12 51 -5z m4 -95 c11 -7 7 -10 -17 -10 -18 0 -33 5 -33 10 0 13 30
13 50 0z m-150 -50 c0 -35 3 -39 21 -37 12 1 26 -6 33 -16 9 -15 7 -21 -7 -32
-13 -9 -17 -20 -12 -34 6 -19 14 -21 85 -21 72 0 78 2 83 22 4 14 1 26 -8 31
-8 4 -15 17 -15 27 0 19 4 22 33 24 18 1 27 17 27 49 0 18 5 27 16 27 25 0 14
-70 -24 -157 -18 -39 -36 -88 -40 -110 l-8 -38 -63 0 -62 0 -44 130 c-48 140
-54 175 -30 175 11 0 15 -11 15 -40z m96 16 c3 -8 12 -12 20 -9 8 3 14 -1 15
-8 0 -8 4 -4 9 9 10 23 35 28 60 12 12 -7 11 -12 -5 -30 -11 -12 -27 -19 -37
-17 -14 4 -16 2 -8 -13 15 -28 13 -30 -30 -30 -43 0 -45 2 -30 30 8 15 6 17
-8 13 -10 -2 -26 5 -37 17 -16 18 -17 23 -5 30 22 14 50 12 56 -4z m62 -118
c-2 -19 -10 -24 -40 -26 -35 -3 -38 -1 -38 22 0 24 4 26 41 26 36 0 40 -2 37
-22z"/>
<path d="M1090 1283 c8 -3 22 -11 30 -17 13 -10 13 -9 1 7 -7 9 -21 17 -30 16
-13 0 -14 -1 -1 -6z"/>
<path d="M1041 1239 c-1 -9 7 -23 17 -30 15 -12 16 -12 6 1 -6 8 -14 22 -17
30 -5 13 -6 12 -6 -1z"/>
<path d="M161 1595 c-28 -13 -31 -17 -21 -30 10 -12 9 -15 -5 -15 -9 0 -15 -6
-12 -12 7 -23 32 -14 31 10 -1 18 6 26 27 34 16 5 29 14 29 19 0 12 -9 11 -49
-6z"/>
<path d="M232 1598 c-7 -7 -12 -18 -12 -26 0 -7 -4 -10 -10 -7 -5 3 -10 0 -10
-8 0 -29 13 -25 31 10 20 39 20 50 1 31z"/>
<path d="M96 1572 c-3 -6 -1 -14 5 -17 15 -10 25 3 12 16 -7 7 -13 7 -17 1z"/>
<path d="M56 1531 c2 -18 10 -44 19 -57 20 -31 74 -32 115 -2 29 21 40 48 20
48 -5 0 -10 -4 -10 -10 0 -12 -41 -40 -69 -45 -13 -2 -24 2 -28 10 -3 8 -9 12
-14 9 -8 -5 -13 9 -10 29 0 4 -3 7 -8 7 -5 0 -12 10 -14 23 -2 12 -3 7 -1 -12z"/>
<path d="M94 1520 c10 -25 20 -35 37 -35 12 0 24 6 27 14 3 10 0 12 -13 7 -13
-5 -25 1 -42 21 l-23 28 14 -35z"/>
<path d="M691 1384 c-12 -15 -21 -34 -20 -43 0 -10 4 -6 10 9 6 13 17 33 26
42 9 10 13 18 10 18 -3 0 -15 -12 -26 -26z"/>
<path d="M733 1347 c-28 -28 -29 -41 -3 -34 15 4 20 0 20 -15 0 -13 6 -18 17
-16 22 4 29 28 9 28 -9 0 -16 8 -16 17 0 14 3 13 23 -5 28 -26 37 -28 37 -6 0
17 -38 54 -55 53 -5 0 -20 -10 -32 -22z"/>
<path d="M1378 1345 c-22 -29 -23 -49 -3 -41 9 3 15 0 15 -9 0 -8 9 -15 20
-15 13 0 20 7 20 20 0 12 5 17 14 14 25 -10 26 13 1 34 -32 28 -46 27 -67 -3z
m42 -20 c0 -8 -4 -15 -10 -15 -5 0 -10 7 -10 15 0 8 5 15 10 15 6 0 10 -7 10
-15z"/>
<path d="M1124 1123 c-7 -10 -17 -11 -47 -2 -28 8 -42 7 -52 -1 -11 -9 -23 -9
-46 -1 -40 14 -39 14 -39 -4 0 -26 46 -35 171 -32 83 1 119 -1 119 -9 0 -6 8
-18 18 -25 14 -11 15 -11 5 1 -7 8 -13 27 -13 42 0 26 -3 28 -40 28 -22 0 -40
4 -40 8 0 14 -26 10 -36 -5z"/>
<path d="M1005 1050 c-13 -43 -55 -80 -92 -80 -26 0 -36 6 -50 33 -13 24 -18
28 -21 15 -2 -10 6 -31 18 -48 17 -24 28 -30 60 -30 21 0 41 6 43 13 4 8 6 6
6 -4 1 -23 98 -119 120 -119 10 0 43 26 73 58 52 54 58 58 95 54 34 -3 43 0
57 19 9 13 16 35 15 49 0 15 -3 19 -6 10 -28 -76 -110 -61 -149 28 -7 15 -13
20 -13 12 0 -8 8 -35 20 -59 l20 -45 -48 -48 c-26 -26 -54 -48 -63 -48 -9 0
-37 22 -63 48 l-48 48 21 48 c12 26 20 52 17 59 -2 7 -7 1 -12 -13z"/>
<path d="M1025 1010 l-17 -52 28 -30 c50 -52 58 -52 103 -7 l40 41 -18 47
c-18 45 -19 46 -69 49 l-50 3 -17 -51z m85 -27 c0 -20 -5 -23 -36 -23 -31 0
-35 2 -24 15 6 8 9 18 6 23 -3 5 8 9 24 9 25 0 30 -4 30 -24z m30 2 c0 -33
-15 -33 -16 0 -1 14 2 25 7 25 5 0 9 -11 9 -25z"/>
<path d="M1091 984 c0 -11 3 -14 6 -6 3 7 2 16 -1 19 -3 4 -6 -2 -5 -13z"/>
<path d="M1594 851 c4 -6 0 -11 -8 -11 -9 0 -16 -4 -16 -10 0 -12 17 -12 45
-1 19 8 19 8 -4 20 -15 8 -21 9 -17 2z"/>
<path d="M586 821 c-7 -10 3 -18 67 -55 26 -15 47 -22 47 -16 0 5 -4 10 -9 10
-5 0 -28 16 -51 35 -46 39 -46 39 -54 26z"/>
<path d="M635 820 c-7 -11 47 -50 69 -50 9 0 16 5 16 11 0 5 -5 7 -10 4 -6 -3
-13 0 -16 9 -3 9 -12 12 -21 9 -10 -4 -14 -2 -10 4 4 6 0 13 -8 17 -8 3 -17 1
-20 -4z"/>
<path d="M1526 789 c-9 -15 -16 -35 -15 -46 0 -16 1 -16 9 2 10 27 32 45 67
54 28 8 28 8 -9 12 -31 4 -38 1 -52 -22z"/>
<path d="M1620 810 c0 -5 5 -10 11 -10 6 0 9 -7 5 -15 -3 -8 -1 -15 4 -15 11
0 13 11 4 34 -7 18 -24 22 -24 6z"/>
<path d="M570 790 c0 -6 7 -13 15 -16 13 -5 13 -8 0 -27 -8 -12 -15 -29 -15
-39 0 -28 -28 -50 -50 -38 -12 6 -21 7 -25 1 -7 -13 32 -34 50 -27 8 3 26 30
40 60 22 47 24 58 13 75 -14 22 -28 28 -28 11z"/>
<path d="M1543 764 c-9 -23 5 -44 29 -44 13 0 38 -9 56 -20 17 -11 32 -16 32
-11 0 12 -40 36 -75 46 -16 4 -24 10 -17 12 36 13 112 -40 112 -78 0 -11 -4
-17 -10 -14 -5 3 -7 0 -5 -7 6 -15 -36 -60 -60 -65 -54 -13 -77 -14 -89 -4
-10 8 -16 9 -21 2 -3 -6 5 -16 19 -22 39 -18 93 -2 139 40 l40 38 -9 54 c-6
33 -14 53 -22 52 -7 -2 -12 2 -12 7 0 6 -3 9 -7 8 -5 0 -15 1 -23 5 -36 14
-72 14 -77 1z"/>
<path d="M710 750 c0 -6 -11 -15 -25 -20 -25 -10 -45 -45 -44 -78 0 -9 7 0 15
20 15 34 18 36 50 31 28 -5 34 -2 34 12 0 11 -5 15 -15 11 -20 -7 -19 4 3 20
16 13 16 13 0 14 -10 0 -18 -5 -18 -10z"/>
<path d="M790 740 c0 -6 -1 -13 -2 -17 -2 -4 10 -10 27 -13 19 -3 31 -12 34
-25 3 -18 2 -19 -15 -5 -21 16 -61 40 -69 40 -6 0 -26 -38 -32 -63 -13 -58
-11 -67 5 -22 11 29 26 51 36 53 21 4 66 -24 66 -41 0 -6 5 -29 11 -50 10 -38
29 -42 29 -6 0 11 -4 18 -9 15 -16 -10 -24 53 -9 71 10 13 10 17 0 20 -6 3
-10 8 -7 12 2 4 -11 15 -30 24 -19 9 -35 12 -35 7z"/>
<path d="M618 698 c-22 -52 -15 -63 8 -14 10 20 21 36 26 36 4 0 8 5 8 10 0
26 -27 6 -42 -32z"/>
<path d="M1350 719 c0 -6 7 -9 14 -6 9 4 13 1 10 -6 -6 -17 -76 -15 -92 3 -8
8 -11 10 -8 3 4 -6 -3 -27 -14 -45 -11 -18 -20 -42 -19 -53 1 -13 4 -10 10 11
9 32 43 54 84 54 20 0 28 -11 51 -71 16 -39 30 -67 32 -61 2 6 -8 38 -21 72
-15 35 -21 63 -15 66 12 8 10 10 46 -63 17 -33 37 -63 44 -66 16 -7 -5 -24
-42 -34 -14 -3 -28 -10 -31 -16 -10 -14 -28 1 -43 36 -8 18 -15 26 -15 19 -1
-8 -8 -11 -20 -7 -12 3 -21 0 -25 -10 -4 -11 2 -15 25 -15 23 0 32 -6 39 -26
8 -19 15 -24 28 -20 70 26 102 43 102 54 0 7 -11 29 -25 49 -13 20 -22 40 -20
44 3 4 -2 10 -11 13 -8 3 -12 10 -9 16 3 5 1 10 -6 10 -7 0 -9 3 -6 7 4 3 2
12 -4 20 -6 7 -8 13 -3 14 12 1 -28 17 -43 18 -7 1 -13 -4 -13 -10z"/>
<path d="M1510 707 c0 -15 31 -30 83 -41 34 -8 35 -30 2 -52 -28 -18 -81 -12
-68 9 4 8 1 7 -10 -2 -21 -17 -15 -27 20 -34 44 -8 93 25 93 63 0 18 -33 40
-60 40 -16 0 -36 7 -44 16 -13 13 -16 13 -16 1z"/>
<path d="M918 674 c12 -8 27 -12 32 -9 6 3 10 -1 10 -9 0 -18 -18 -17 -38 2
-7 6 -18 12 -23 12 -5 0 -9 -6 -9 -12 0 -9 -4 -8 -10 2 -12 18 -12 2 0 -25 5
-11 9 -14 9 -7 1 6 10 12 22 12 16 0 20 -4 14 -17 -3 -10 -8 -31 -11 -48 -3
-23 0 -20 12 13 9 24 18 42 20 40 9 -9 -23 -142 -35 -146 -8 -3 -11 -1 -8 4 3
5 -9 10 -26 10 -20 1 -39 11 -55 29 -24 28 -24 28 -20 4 2 -17 17 -31 58 -50
66 -33 74 -27 85 59 4 31 13 72 21 91 8 19 13 35 12 36 -14 11 -50 25 -65 25
-15 0 -14 -2 5 -16z"/>
<path d="M1050 651 c0 -5 -8 -12 -18 -15 -20 -7 -52 -65 -52 -94 0 -9 10 2 21
26 35 71 90 90 133 47 23 -23 30 -18 12 10 -22 33 -13 32 19 -2 29 -32 34 -17
6 18 -17 21 -22 22 -40 11 -13 -7 -21 -8 -21 -2 0 5 -13 10 -30 10 -16 0 -30
-4 -30 -9z"/>
<path d="M486 641 c-8 -12 122 -91 151 -91 11 0 24 7 27 16 9 22 8 24 -10 24
-8 0 -12 4 -9 10 3 5 0 7 -8 4 -8 -3 -21 2 -30 10 -20 20 -27 20 -27 1 0 -8 7
-15 16 -15 8 0 22 -7 30 -15 9 -8 13 -15 9 -15 -15 0 -102 44 -121 62 -13 12
-24 16 -28 9z"/>
<path d="M1305 640 c3 -6 -2 -10 -12 -10 -14 0 -15 -2 -4 -9 15 -10 41 -4 41
9 0 4 -7 11 -16 14 -8 3 -12 2 -9 -4z"/>
<path d="M1280 593 c0 -14 19 -17 44 -7 26 10 18 21 -14 20 -17 -1 -30 -7 -30
-13z"/>
<path d="M777 574 c-3 -19 -1 -24 10 -20 8 3 16 6 18 6 2 0 1 9 -2 20 -7 28
-20 25 -26 -6z"/>
<path d="M1043 565 c-8 -23 0 -25 21 -4 18 17 18 19 2 19 -9 0 -19 -7 -23 -15z"/>
<path d="M1110 573 c0 -7 -5 -12 -11 -10 -6 1 -14 -4 -16 -10 -3 -9 10 -13 46
-13 51 0 72 13 52 33 -6 6 -11 7 -11 1 0 -14 -43 -15 -52 -1 -6 9 -8 9 -8 0z"/>
<path d="M700 546 c0 -8 14 -19 31 -25 39 -14 49 -14 49 -1 0 6 -9 10 -21 10
-13 0 -18 4 -13 13 4 6 4 9 -1 5 -4 -4 -16 -3 -26 3 -15 7 -19 6 -19 -5z"/>
<path d="M1030 506 c0 -4 5 -16 10 -27 13 -23 62 -26 80 -4 7 8 16 12 21 9 5
-3 9 2 9 10 0 20 -26 21 -34 1 -7 -20 -45 -19 -68 2 -10 9 -18 13 -18 9z"/>
<path d="M1065 500 c4 -6 11 -8 16 -5 14 9 11 15 -7 15 -8 0 -12 -5 -9 -10z"/>
<path d="M970 483 c0 -26 34 -61 68 -70 75 -19 181 24 156 63 -13 21 -28 20
-33 -3 -3 -15 -1 -15 13 -4 10 9 16 9 16 2 0 -19 -58 -41 -110 -41 -27 0 -50
5 -50 10 0 6 -7 10 -15 10 -8 0 -21 12 -29 28 -14 25 -15 25 -16 5z"/>
<path d="M1217 477 c-10 -28 16 -31 81 -11 29 9 0 21 -32 14 -23 -5 -36 -4
-39 3 -2 6 -6 3 -10 -6z"/>
</g>
</svg>
