<?xml version="1.0" standalone="no"?>
<!DOCTYPE svg PUBLIC "-//W3C//DTD SVG 20010904//EN"
 "http://www.w3.org/TR/2001/REC-SVG-20010904/DTD/svg10.dtd">
<svg version="1.0" xmlns="http://www.w3.org/2000/svg"
 width="718.000000pt" height="744.000000pt" viewBox="0 0 718.000000 744.000000"
 preserveAspectRatio="xMidYMid meet">

<g transform="translate(0.000000,744.000000) scale(0.100000,-0.100000)"
fill="#000000" stroke="none">
<path d="M0 7205 c0 -158 4 -242 12 -260 9 -19 9 -28 0 -37 -8 -8 -12 -62 -12
-170 l0 -158 28 0 c15 0 49 -6 77 -13 40 -11 52 -19 60 -41 16 -48 -2 -61 -89
-64 l-76 -3 0 -134 c0 -74 1 -135 3 -136 1 0 58 -2 127 -5 69 -3 136 -9 150
-13 14 -5 37 -12 52 -15 31 -7 47 -42 27 -62 -11 -10 -58 -14 -186 -15 l-173
-2 0 -378 0 -379 26 -6 c14 -4 42 -4 62 -2 54 7 126 -14 130 -37 4 -17 -2 -18
-79 -12 -46 3 -96 3 -111 0 l-28 -5 0 -499 c0 -482 1 -499 19 -509 11 -5 22
-18 25 -27 15 -49 29 -222 27 -335 -2 -88 1 -128 8 -128 12 0 17 74 12 177 -4
96 32 302 56 316 17 9 166 -12 174 -25 7 -10 9 -10 9 0 0 6 5 12 11 12 6 0 9
-7 6 -15 -4 -8 -2 -17 3 -20 6 -4 10 6 10 21 0 26 1 26 58 22 34 -3 79 1 112
9 74 20 287 11 385 -17 39 -11 80 -20 93 -20 21 0 51 -17 131 -75 26 -19 46
-25 87 -25 67 0 88 -19 97 -84 4 -26 16 -79 28 -117 15 -48 19 -83 15 -109 -6
-36 -4 -41 23 -54 16 -9 57 -38 92 -66 34 -27 67 -50 73 -50 6 0 22 -9 36 -20
37 -29 49 -25 70 25 13 31 27 46 44 51 36 9 56 -1 56 -28 0 -14 4 -18 9 -13
12 12 26 224 17 259 -13 50 -26 26 -26 -48 0 -77 -6 -106 -21 -106 -18 0 -30
43 -39 140 -13 140 10 189 59 123 l20 -28 23 27 23 26 183 -7 c168 -7 185 -9
204 -29 13 -12 21 -34 21 -52 0 -37 18 -35 28 4 12 43 25 53 79 59 54 7 55 7
138 85 31 29 85 73 119 98 60 43 64 44 138 44 57 0 97 7 153 26 90 31 261 101
276 113 6 5 29 14 51 21 22 7 45 17 52 22 24 19 73 26 108 15 31 -9 38 -8 58
11 13 12 36 22 51 22 26 0 76 41 76 63 0 4 9 16 19 26 19 19 19 23 4 103 -8
46 -19 98 -25 116 -5 17 -6 41 -3 52 10 31 -16 199 -32 216 -11 11 -49 14
-166 14 -84 0 -273 3 -422 6 -148 2 -480 6 -737 7 -437 2 -467 3 -472 20 -5
19 28 42 45 31 6 -3 398 -7 872 -9 474 -2 870 -7 879 -10 22 -9 33 17 43 105
9 78 12 85 31 65 13 -13 14 -24 5 -67 -10 -43 -9 -54 4 -68 13 -14 13 -19 3
-23 -7 -3 -4 -6 8 -6 11 -1 23 -4 27 -7 7 -8 -40 -96 -57 -106 -8 -6 -8 -13 2
-28 8 -14 9 -20 1 -20 -7 0 -8 -7 -4 -17 4 -10 7 -28 7 -39 -1 -19 3 -21 41
-18 43 3 84 -12 60 -23 -7 -2 -13 -12 -13 -20 0 -10 5 -13 18 -8 40 17 54 17
72 0 22 -20 26 -35 9 -35 -12 0 -49 -38 -49 -50 0 -4 -9 -10 -21 -13 -12 -3
-18 -10 -14 -17 4 -6 2 -16 -3 -23 -5 -7 -10 -39 -11 -72 -1 -38 -6 -65 -16
-74 -9 -9 -15 -11 -15 -4 0 6 6 14 13 17 6 3 1 3 -13 0 -14 -4 -27 -8 -29 -10
-2 -1 7 -33 19 -70 21 -66 55 -124 112 -194 16 -19 52 -66 80 -105 29 -38 87
-113 131 -165 86 -104 204 -277 275 -402 30 -54 119 -266 132 -315 6 -24 15
-43 20 -43 6 0 10 -8 11 -17 0 -15 2 -15 9 2 5 11 9 72 10 135 2 231 18 300
159 690 42 116 55 203 37 258 -15 45 -24 28 -96 -183 -77 -224 -110 -301 -118
-277 -2 6 -10 12 -17 12 -22 0 -34 31 -24 58 11 28 4 42 -19 42 -12 0 -26 23
-46 71 -25 62 -28 75 -18 103 6 17 14 50 18 73 4 29 14 47 30 58 13 8 24 23
24 32 0 9 7 24 15 33 9 10 17 26 20 36 18 88 19 84 -4 84 -15 0 -21 6 -21 21
0 11 -4 17 -10 14 -5 -3 -10 -2 -10 3 0 6 -17 17 -39 25 -21 9 -41 23 -44 31
-4 10 -19 16 -40 16 -41 0 -56 15 -64 65 -3 21 -13 39 -22 42 -36 12 -163 79
-186 99 -28 24 -31 40 -12 57 13 13 69 36 107 45 14 3 28 10 32 16 4 7 13 4
26 -7 24 -22 32 -21 32 2 0 27 11 32 51 21 75 -19 133 -19 161 2 23 16 26 23
18 39 -6 10 -17 19 -24 19 -7 0 -23 11 -36 25 -43 45 -10 127 63 156 18 7 35
17 38 22 8 11 3 76 -5 85 -3 3 1 14 11 24 9 11 11 18 5 18 -7 0 -12 5 -12 10
0 6 7 6 18 -1 25 -16 76 -3 68 16 -12 33 25 12 51 -27 24 -38 27 -55 32 -158
5 -89 10 -121 25 -142 22 -34 30 -30 56 29 25 56 41 48 47 -24 4 -37 1 -52
-11 -62 -15 -13 -23 -51 -10 -51 3 0 14 5 25 10 12 7 25 7 37 1 20 -11 61 10
86 44 12 17 13 17 19 -6 14 -52 -36 -139 -79 -139 -7 0 -32 18 -55 41 l-41 40
-28 -30 c-16 -16 -32 -47 -36 -68 -4 -21 -16 -56 -27 -78 -36 -71 -37 -73 -24
-78 22 -8 46 13 66 59 20 45 48 56 44 18 -5 -59 -24 -196 -34 -241 -10 -44
-10 -59 4 -90 21 -50 26 -70 29 -117 2 -38 3 -39 96 -82 52 -24 96 -44 99 -44
3 0 33 -17 67 -37 33 -21 86 -51 117 -68 31 -16 78 -45 104 -64 29 -21 46 -28
42 -19 -4 12 2 18 20 23 42 10 65 -21 68 -90 1 -46 6 -61 28 -83 15 -14 29
-23 32 -20 4 3 10 40 14 81 11 115 10 114 197 115 l154 1 14 -27 c24 -46 36
-651 16 -790 -11 -81 -30 -110 -72 -114 -29 -3 -33 -6 -33 -33 0 -23 4 -30 20
-30 30 0 33 -42 3 -47 -21 -3 -24 -10 -30 -73 -3 -38 -4 -97 -1 -130 3 -39 -2
-96 -15 -165 -26 -131 -41 -279 -44 -436 -2 -103 0 -124 15 -138 20 -20 21
-53 7 -181 -6 -49 -14 -139 -19 -200 -6 -60 -17 -129 -25 -153 -9 -24 -16 -75
-17 -113 -2 -87 12 -104 119 -149 42 -17 92 -38 110 -46 18 -8 40 -14 48 -14
9 0 33 -9 53 -20 118 -64 483 -190 507 -174 9 5 28 38 43 74 15 36 37 81 49
100 42 67 92 209 107 303 3 20 11 37 18 37 14 0 77 -73 77 -89 0 -15 80 -94
135 -132 l50 -34 -30 -3 c-55 -5 -59 -10 -28 -40 15 -16 37 -34 48 -40 22 -12
23 -12 -48 -16 -10 -1 -21 -6 -25 -12 -4 -6 -17 -14 -29 -18 -42 -13 -25 -33
40 -45 34 -7 80 -17 102 -22 76 -18 210 -41 263 -46 l52 -5 0 644 0 643 -81
25 c-44 13 -82 27 -85 31 -2 4 -22 10 -43 14 -50 8 -91 48 -91 86 0 22 5 29
20 29 11 0 28 -4 38 -10 18 -10 182 -73 220 -84 l22 -7 0 650 0 650 -43 5
c-23 3 -143 13 -267 21 -237 17 -322 25 -485 49 -55 8 -118 17 -140 20 -22 3
-107 8 -190 12 -148 6 -150 6 -171 -18 -11 -12 -29 -50 -38 -83 -27 -92 -47
-144 -58 -151 -13 -8 -29 17 -23 35 3 7 8 57 11 110 10 180 23 311 34 331 10
18 21 20 143 20 73 0 141 3 153 6 12 3 29 -2 43 -13 18 -15 23 -31 28 -96 11
-139 46 -144 67 -8 18 111 31 124 115 116 36 -4 70 -12 74 -18 6 -9 10 -9 14
1 3 7 26 12 63 12 78 0 100 -25 100 -114 0 -38 6 -70 15 -82 8 -12 11 -24 8
-28 -3 -3 -2 -6 4 -6 21 0 41 37 48 90 4 30 15 72 24 93 16 38 16 38 66 33 28
-2 72 -10 99 -17 45 -11 50 -10 64 7 9 13 16 15 19 7 2 -7 10 -10 17 -7 7 3
24 1 37 -4 26 -10 49 -73 49 -136 0 -34 30 -73 49 -62 11 7 26 54 35 107 4 21
13 42 21 49 12 10 15 42 15 161 0 81 -3 150 -7 152 -5 3 -6 79 -5 169 2 89 6
274 8 411 l4 247 -1112 -5 c-1014 -6 -1114 -8 -1131 -23 -15 -13 -20 -14 -26
-3 -9 14 -3 51 8 51 4 0 12 -5 18 -11 8 -8 17 -7 34 5 13 9 33 16 44 16 11 0
45 9 75 21 76 29 282 38 1015 42 530 3 593 5 620 20 17 9 37 17 45 17 9 0 11
3 5 8 -5 4 -14 15 -20 25 -5 10 -13 17 -18 15 -4 -2 -17 16 -28 40 -18 37 -25
43 -45 38 -12 -3 -24 -1 -26 4 -2 6 -29 14 -61 17 -41 4 -57 10 -53 19 7 19
-22 38 -63 41 -46 3 -99 25 -129 53 -17 16 -29 20 -57 14 -20 -3 -35 -12 -35
-20 0 -19 -9 -18 -47 6 -18 11 -33 15 -33 10 0 -6 -18 -10 -40 -10 -22 0 -40
5 -40 10 0 6 -18 10 -40 10 -35 0 -40 3 -41 23 l0 22 -9 -22 c-7 -17 -18 -23
-40 -23 -16 0 -30 -4 -30 -8 0 -11 -55 -42 -75 -42 -10 0 -15 5 -12 14 3 8 -5
19 -20 27 -21 11 -27 11 -30 2 -3 -8 -23 -13 -50 -13 -41 0 -44 1 -38 23 4 12
16 31 26 42 17 19 17 22 3 37 -12 12 -14 20 -5 36 8 16 7 21 -4 26 -8 3 -15
12 -15 19 0 33 -46 40 -355 53 -55 2 -107 4 -115 5 -8 1 -23 -2 -33 -6 -14 -6
-21 1 -34 33 -16 42 -60 70 -47 30 4 -15 2 -19 -7 -16 -8 3 -17 21 -20 41 -3
20 -11 42 -17 49 -12 15 -5 58 9 58 6 0 11 -6 13 -12 2 -7 8 -29 14 -48 l9
-35 17 37 c15 36 13 68 -5 68 -5 0 -9 9 -9 20 0 11 5 20 10 20 17 0 12 77 -6
84 -13 5 -15 20 -11 91 2 47 1 88 -3 90 -7 4 -22 192 -24 295 -1 30 -5 58 -11
62 -12 8 -7 78 7 95 6 7 6 39 -1 88 -11 77 -6 155 10 155 16 0 10 77 -6 84
-20 7 -20 113 0 140 8 11 15 39 15 62 0 24 5 46 11 49 6 5 4 12 -7 20 -19 13
-21 52 -8 158 l6 47 -390 0 -391 0 -4 -97 c-2 -54 -7 -143 -10 -198 -3 -55 -7
-270 -9 -478 l-3 -378 -37 -6 c-21 -3 -38 -9 -38 -13 0 -4 -12 -15 -26 -25
-23 -15 -27 -15 -50 0 -30 19 -96 13 -163 -16 -62 -27 -152 -49 -198 -49 -32
0 -43 -6 -60 -29 -12 -15 -34 -31 -50 -34 -31 -7 -93 -58 -93 -77 0 -8 -12
-10 -39 -5 -38 6 -40 5 -57 -30 -9 -20 -25 -42 -36 -48 -10 -7 -18 -19 -18
-28 0 -9 -9 -28 -20 -42 -11 -14 -20 -34 -20 -44 0 -22 -25 -61 -34 -52 -7 7
8 97 35 209 21 85 54 155 83 180 21 17 20 53 -2 71 -9 8 -46 28 -82 43 -36 16
-88 40 -116 53 -106 48 -109 43 -124 -237 -6 -124 -18 -256 -27 -295 -8 -38
-17 -81 -18 -94 -6 -41 -41 -53 -67 -23 -13 14 -14 36 -7 137 4 66 15 156 23
200 9 44 23 125 31 179 9 54 20 107 25 117 6 10 10 31 10 48 0 16 4 40 9 53 5
13 17 45 26 71 11 32 25 51 40 57 43 16 45 102 3 116 -11 3 -67 28 -123 55
-110 52 -149 60 -163 32 -10 -19 -17 -97 -32 -324 -9 -147 -30 -257 -63 -331
-40 -92 -52 -52 -43 145 3 78 10 167 16 197 5 30 16 98 24 150 8 52 21 122 30
155 8 33 15 70 16 82 0 12 11 47 25 77 14 30 25 58 25 63 0 5 10 13 23 18 42
19 35 98 -10 110 -32 8 -78 27 -143 58 -28 14 -63 22 -97 22 -62 0 -61 -3 -34
107 22 89 27 98 48 98 15 0 42 27 43 43 0 4 -218 7 -484 7 l-484 0 -6 -25 c-4
-14 -13 -25 -21 -25 -8 0 -17 11 -21 25 -5 21 -12 25 -44 25 -35 0 -39 -3 -42
-27 -2 -20 -9 -28 -23 -28 -14 0 -21 8 -23 28 -3 24 -7 27 -42 27 -30 0 -40
-5 -45 -20 -3 -11 -10 -20 -15 -20 -5 0 -14 9 -20 20 -7 14 -21 20 -45 20 -29
0 -34 -4 -40 -30 -4 -17 -13 -30 -21 -30 -8 0 -20 14 -25 30 -9 25 -16 30 -43
30 -23 0 -34 -6 -41 -22 -6 -13 -14 -23 -20 -23 -5 0 -14 10 -20 23 -7 17 -18
22 -45 22 -30 0 -37 -4 -47 -30 -6 -16 -16 -30 -22 -30 -6 0 -14 14 -18 30 -5
27 -9 30 -44 30 -34 0 -38 -3 -41 -27 -2 -17 -10 -29 -20 -31 -14 -3 -18 3
-18 27 0 30 -2 31 -44 31 -40 0 -44 -2 -49 -30 -4 -18 -13 -30 -22 -30 -9 0
-18 12 -21 30 -6 27 -10 30 -46 30 -34 0 -39 -3 -33 -19 6 -20 -18 -46 -35
-36 -5 3 -10 17 -10 31 0 21 -4 24 -39 24 -34 0 -39 -3 -47 -31 -14 -46 -31
-41 -48 14 -7 23 -76 25 -76 1 0 -28 -19 -54 -36 -47 -8 3 -13 12 -10 19 11
28 -5 44 -45 44 -24 0 -40 -5 -41 -12 0 -7 -1 -20 -2 -28 -1 -8 -9 -16 -19
-18 -13 -3 -22 6 -30 27 l-11 31 -83 0 c-59 0 -83 -4 -85 -12 0 -7 -2 -17 -3
-23 -2 -5 -3 -16 -4 -23 -2 -26 -21 0 -21 29 0 28 -1 29 -50 29 l-50 0 0 -235z
m120 135 c0 -5 -2 -10 -4 -10 -3 0 -8 5 -11 10 -3 6 -1 10 4 10 6 0 11 -4 11
-10z m2496 -427 c-7 -175 -20 -258 -42 -280 -7 -7 -14 -13 -16 -13 -8 0 2 227
12 273 5 26 10 68 10 92 0 47 17 95 33 95 7 0 8 -59 3 -167z m-2194 46 c76
-11 117 -32 85 -44 -8 -4 -97 -7 -197 -8 -161 -2 -184 0 -193 15 -8 12 -8 20
0 30 15 18 202 22 305 7z m421 -18 c12 -12 -46 -23 -98 -19 -45 3 -50 20 -8
26 15 2 30 6 33 8 7 8 62 -4 73 -15z m152 -1 c4 -6 -8 -10 -30 -10 -22 0 -34
4 -30 10 3 6 17 10 30 10 13 0 27 -4 30 -10z m393 1 c22 -13 -15 -23 -57 -14
-34 6 -35 7 -11 14 35 10 53 10 68 0z m-847 -371 c19 -11 28 -73 11 -84 -10
-6 -205 -21 -250 -19 -18 1 -40 7 -48 14 -17 14 -19 85 -1 92 24 10 268 7 288
-3z m999 -30 c11 -7 9 -11 -13 -19 -35 -14 -58 -14 -77 -1 -13 9 -13 11 0 20
19 12 70 13 90 0z m520 -10 c0 -5 -9 -10 -21 -10 -11 0 -17 5 -14 10 3 6 13
10 21 10 8 0 14 -4 14 -10z m-1420 -105 c0 -12 -33 -55 -41 -55 -13 0 -11 34
3 48 12 12 38 17 38 7z m310 -179 c0 -36 -13 -61 -28 -52 -17 11 -26 87 -11
97 20 12 39 -10 39 -45z m3535 -46 c3 -6 -1 -13 -10 -16 -19 -8 -30 0 -20 15
8 14 22 14 30 1z m-3945 -51 c0 -10 5 -28 12 -39 15 -24 6 -34 -26 -26 -57 14
-74 65 -28 82 33 13 42 9 42 -17z m545 4 c14 -13 21 -14 36 -5 24 15 52 15 67
0 10 -10 17 -10 32 0 13 8 21 8 26 1 3 -6 19 -8 35 -5 28 5 48 -7 29 -19 -5
-3 -10 -18 -10 -32 0 -19 -24 -49 -92 -118 -94 -93 -153 -159 -205 -227 -17
-23 -37 -37 -50 -38 -24 0 -63 43 -63 71 0 10 39 57 86 106 100 103 119 127
108 145 -5 7 -9 21 -9 31 -2 24 -27 40 -36 25 -6 -9 -12 -8 -23 1 -20 17 -20
27 2 56 20 29 44 31 67 8z m858 -20 c17 -10 5 -23 -28 -29 -24 -4 -46 -1 -70
10 -32 15 -37 16 -57 2 -30 -21 -107 -20 -138 1 l-24 17 24 8 c25 7 278 0 293
-9z m355 -10 c-4 -20 -54 -31 -70 -15 -17 17 1 32 38 32 28 0 35 -4 32 -17z
m-913 -3 c-3 -5 -10 -10 -16 -10 -5 0 -9 5 -9 10 0 6 7 10 16 10 8 0 12 -4 9
-10z m63 -226 c72 -39 157 -103 148 -112 -11 -10 -121 32 -142 55 -12 13 -26
23 -31 23 -12 0 -38 29 -46 53 -9 23 -6 22 71 -19z m3632 22 c0 -3 -4 -8 -10
-11 -5 -3 -10 -1 -10 4 0 6 5 11 10 11 6 0 10 -2 10 -4z m-4260 -121 c0 -8 -5
-17 -11 -21 -16 -9 -30 18 -17 33 12 15 28 8 28 -12z m-390 -54 c60 -5 75 -9
78 -23 3 -16 -6 -18 -75 -18 -50 0 -84 -5 -92 -12 -20 -21 -146 -16 -171 7
-41 37 -8 53 110 53 41 0 109 -3 150 -7z m1689 -27 c16 -3 20 -9 14 -15 -5 -5
-57 -8 -119 -7 -107 3 -108 3 -80 19 29 16 116 17 185 3z m431 -18 c0 -2 -7
-6 -15 -10 -8 -3 -15 -1 -15 4 0 6 7 10 15 10 8 0 15 -2 15 -4z m836 -180 c17
-13 18 -17 5 -48 -8 -18 -17 -69 -21 -113 -7 -75 -31 -145 -50 -145 -17 0 -22
43 -10 81 10 28 10 45 1 70 -15 42 -14 142 1 157 16 16 50 15 74 -2z m2275
-66 c11 0 19 -4 19 -10 0 -5 -17 -10 -38 -10 -21 0 -43 -5 -50 -12 -9 -9 -15
-8 -26 8 -13 17 -13 20 2 26 9 4 30 5 46 3 16 -3 37 -5 47 -5z m-251 -20 c0
-11 -6 -20 -13 -20 -7 0 -20 9 -30 20 -16 19 -16 20 13 20 23 0 30 -4 30 -20z
m103 13 c-7 -2 -21 -2 -30 0 -10 3 -4 5 12 5 17 0 24 -2 18 -5z m-4959 -139
c3 -8 1 -24 -4 -35 -9 -15 -18 -18 -58 -13 -76 9 -92 14 -92 29 0 9 14 16 38
20 20 4 44 8 52 10 37 7 58 4 64 -11z m1341 -16 c14 -6 25 -14 25 -18 0 -21
-113 -20 -126 1 -17 28 52 40 101 17z m352 6 c13 -4 20 -11 16 -20 -5 -15 -77
-20 -109 -7 -14 5 -11 9 17 19 40 15 47 16 76 8z m1728 -100 c18 -35 49 -69
76 -80 17 -8 29 -25 37 -52 16 -53 13 -122 -5 -122 -8 0 -11 5 -8 10 3 6 0 10
-8 10 -8 0 -20 -13 -26 -30 -12 -36 -19 -38 -31 -6 -6 17 -21 28 -45 35 -20 5
-52 22 -71 36 -33 25 -36 26 -59 11 -20 -13 -24 -13 -29 -1 -4 10 1 15 14 15
11 0 20 4 20 9 0 5 11 23 25 39 14 17 32 51 39 77 23 75 49 93 71 49z m-3114
-11 c24 -59 17 -92 -11 -58 -15 18 -71 20 -88 3 -18 -18 -27 -1 -14 27 11 23
59 52 90 54 7 1 17 -11 23 -26z m4014 -8 c14 -13 25 -32 25 -41 0 -16 -2 -15
-22 3 -13 11 -31 23 -40 26 -22 8 -24 37 -3 37 9 0 27 -11 40 -25z m-38 -108
c13 -38 8 -71 -8 -61 -18 11 -40 66 -34 85 10 29 28 18 42 -24z m-4057 12 c0
-5 -4 -9 -10 -9 -5 0 -10 7 -10 16 0 8 5 12 10 9 6 -3 10 -10 10 -16z m6285
-130 c-3 -4 -8 -133 -11 -286 -3 -153 -7 -294 -8 -313 -3 -38 -26 -110 -36
-110 -3 0 -10 14 -15 32 -10 33 -35 51 -35 25 0 -8 -6 -20 -14 -26 -10 -9 -16
-8 -26 5 -8 9 -22 13 -36 10 -33 -9 -55 33 -61 118 -5 58 -3 74 11 85 9 7 16
20 16 27 0 9 11 14 28 14 15 0 35 9 45 20 21 24 21 34 3 49 -11 9 -21 5 -50
-23 -42 -39 -76 -39 -76 0 0 18 5 24 23 24 21 0 26 8 36 56 9 39 10 59 2 63
-5 4 -17 22 -25 41 -8 19 -15 28 -16 21 0 -28 -18 4 -22 39 -2 29 0 34 15 32
9 -2 17 1 17 6 0 13 -45 42 -65 42 -8 0 -15 6 -15 14 0 8 -3 21 -6 30 -9 23
15 20 35 -6 11 -12 23 -18 30 -14 9 6 9 11 1 21 -10 12 2 15 67 17 106 4 194
-2 188 -13z m-6642 -89 c15 -7 27 -19 27 -25 0 -16 -48 -37 -63 -28 -7 4 -68
7 -136 8 -103 0 -126 3 -134 16 -6 9 -7 24 -4 34 6 15 21 17 145 13 88 -3 147
-9 165 -18z m1708 -14 c16 -6 29 -14 29 -18 0 -14 -71 -20 -117 -9 -33 8 -59
8 -82 2 -19 -6 -38 -8 -42 -5 -13 8 -11 32 4 37 25 9 181 4 208 -7z m363 3
c14 -7 23 -16 20 -20 -6 -11 -72 -10 -99 0 -18 7 -17 9 10 19 39 14 40 14 69
1z m-788 -330 c10 -17 -13 -36 -27 -22 -12 12 -4 33 11 33 5 0 12 -5 16 -11z
m444 -71 c0 -17 -17 -7 -28 17 -17 37 -15 41 8 15 11 -13 20 -27 20 -32z
m2088 9 c4 -21 -29 -57 -51 -57 -21 0 -55 42 -39 47 6 3 12 11 12 19 0 24 74
15 78 -9z m-2499 -194 c0 -30 -4 -55 -11 -59 -15 -10 -58 41 -58 69 0 38 12
67 26 67 8 0 18 8 22 18 9 23 19 -23 21 -95z m383 16 c9 -5 27 -9 40 -9 37 0
48 -16 35 -51 -9 -22 -18 -29 -37 -29 -14 0 -31 -5 -38 -12 -9 -9 -21 -7 -51
10 -21 12 -47 22 -57 22 -26 1 -68 34 -62 50 10 31 122 43 170 19z m-261 -27
c14 -16 14 -22 2 -37 -12 -18 -15 -18 -29 -3 -10 10 -14 23 -9 37 8 26 16 26
36 3z m2474 -544 c-2 -24 -4 -50 -4 -58 -1 -12 -4 -11 -18 3 -13 13 -14 21 -6
39 6 13 14 31 17 41 9 30 14 19 11 -25z m-39 -105 c-11 -11 -19 6 -11 24 8 17
8 17 12 0 3 -10 2 -21 -1 -24z m2489 -733 c27 -18 28 -20 8 -20 -12 0 -26 6
-30 14 -4 7 -15 16 -23 19 -13 5 -13 6 0 6 8 1 29 -8 45 -19z"/>
<path d="M3985 5010 c3 -5 10 -10 16 -10 5 0 9 5 9 10 0 6 -7 10 -16 10 -8 0
-12 -4 -9 -10z"/>
<path d="M4020 4993 c1 -18 19 -35 29 -28 9 5 9 10 0 21 -12 15 -29 19 -29 7z"/>
<path d="M5123 7000 c0 -25 2 -35 4 -22 2 12 2 32 0 45 -2 12 -4 2 -4 -23z"/>
<path d="M5157 5900 c6 -22 23 -38 23 -21 0 17 -12 41 -20 41 -5 0 -6 -9 -3
-20z"/>
<path d="M5167 5813 c-10 -10 -8 -53 2 -53 8 0 20 32 21 53 0 9 -14 9 -23 0z"/>
<path d="M5265 5720 c3 -5 8 -10 11 -10 2 0 4 5 4 10 0 6 -5 10 -11 10 -5 0
-7 -4 -4 -10z"/>
<path d="M6208 5501 c-10 -10 -18 -21 -18 -24 0 -12 21 -8 36 7 15 16 19 36 7
35 -5 0 -16 -8 -25 -18z"/>
<path d="M5773 5503 c-14 -5 -18 -33 -5 -33 4 0 13 9 20 20 12 20 8 23 -15 13z"/>
<path d="M6837 5179 c8 -8 16 -8 30 0 16 9 14 10 -11 11 -22 0 -27 -3 -19 -11z"/>
<path d="M4515 4600 c-10 -11 -20 -18 -23 -15 -12 12 -33 -38 -31 -72 3 -55
-20 -113 -46 -113 -11 0 -15 -3 -9 -8 5 -4 10 -26 10 -48 0 -23 6 -49 13 -58
17 -20 51 -21 51 -2 0 8 11 23 25 34 22 18 25 28 31 123 6 102 6 170 0 176 -1
2 -11 -6 -21 -17z"/>
<path d="M560 4243 c-51 -4 -151 -50 -194 -89 -66 -62 -111 -220 -111 -389 1
-228 40 -286 243 -365 18 -7 32 -20 32 -29 0 -9 5 -23 10 -31 9 -13 12 -13 21
3 5 9 21 17 34 17 34 0 45 -45 52 -207 7 -154 4 -158 -73 -124 -43 19 -49 20
-76 6 -24 -12 -62 -14 -191 -10 -89 3 -181 10 -204 16 -62 17 -103 -2 -103
-46 l0 -33 85 -3 c98 -5 127 -21 107 -61 -6 -13 -13 -32 -16 -44 -12 -40 -46
-327 -40 -335 8 -13 50 -11 62 4 6 6 18 68 27 137 10 69 19 131 21 138 4 14
40 16 48 3 4 -5 15 -72 25 -148 21 -151 27 -173 46 -173 21 0 28 36 19 99 -4
31 -6 64 -5 74 5 37 -22 212 -37 244 -27 56 -8 63 165 62 168 -1 160 7 146
-130 -5 -46 -6 -160 -3 -254 6 -155 10 -185 49 -335 23 -91 45 -174 50 -185 5
-11 14 -40 21 -65 6 -25 18 -59 26 -77 10 -22 16 -84 19 -208 4 -142 9 -183
23 -208 13 -26 17 -54 15 -139 -2 -123 -7 -134 -87 -188 -28 -19 -80 -56 -115
-83 -36 -26 -74 -50 -86 -53 -12 -3 -48 1 -80 10 -71 18 -105 7 -105 -35 0
-40 46 -75 111 -82 63 -8 179 -45 179 -58 0 -5 -11 -9 -24 -9 -14 0 -27 -4
-31 -9 -7 -13 241 -19 315 -8 30 4 96 9 146 11 65 2 96 7 107 17 8 9 40 21 71
28 30 7 58 16 61 20 2 5 7 99 10 211 3 111 7 206 10 210 3 5 10 95 16 201 7
124 15 202 24 219 9 17 10 31 4 41 -5 8 -9 43 -9 80 0 95 -19 320 -36 424 -7
50 -14 134 -14 187 0 103 -5 128 -25 128 -12 0 -116 60 -220 126 -86 55 -162
136 -198 211 -30 64 -32 76 -35 196 -3 86 0 127 7 127 6 0 11 -14 11 -31 0
-46 21 -109 37 -109 10 0 12 10 6 43 -13 75 -10 102 11 102 13 0 24 -15 38
-55 11 -30 32 -67 46 -82 25 -27 25 -58 0 -58 -19 0 -68 -59 -68 -82 0 -30 26
-72 65 -107 30 -26 43 -31 89 -31 97 0 145 11 176 40 26 25 30 35 30 84 0 31
7 73 15 92 44 105 66 219 70 369 5 142 4 147 -8 92 -19 -84 -37 -98 -128 -100
-111 -3 -106 16 40 170 41 44 43 48 37 92 -3 25 -8 82 -10 126 -5 98 -17 126
-64 149 -20 10 -44 21 -52 25 -8 4 -37 9 -63 9 -56 2 -92 23 -114 65 -19 37
-72 87 -93 87 -8 0 -38 11 -67 24 -76 36 -196 56 -293 49z m539 -1160 c13 -46
14 -70 2 -77 -15 -10 -43 32 -48 73 -5 37 -3 41 15 41 16 0 24 -9 31 -37z
m-109 -2025 c0 -27 -43 -58 -81 -58 -32 0 -37 3 -32 18 13 36 36 52 75 52 23
0 38 -5 38 -12z"/>
<path d="M280 4204 c0 -17 22 -14 28 4 2 7 -3 12 -12 12 -9 0 -16 -7 -16 -16z"/>
<path d="M1256 4043 c20 -49 32 -61 40 -40 9 23 -18 77 -38 77 -16 0 -16 -3
-2 -37z"/>
<path d="M71 3453 c0 -98 2 -173 4 -168 8 25 12 345 4 345 -5 0 -9 -79 -8
-177z"/>
<path d="M3097 3566 c-4 -10 -5 -21 -2 -24 9 -9 17 6 13 25 -3 17 -4 17 -11
-1z"/>
<path d="M3061 3404 c0 -11 3 -14 6 -6 3 7 2 16 -1 19 -3 4 -6 -2 -5 -13z"/>
<path d="M3096 3393 c-3 -3 -6 -24 -6 -45 0 -25 -5 -41 -15 -44 -8 -4 -15 -17
-15 -29 0 -31 -41 -94 -61 -95 -10 0 -31 -28 -53 -72 -20 -40 -51 -93 -68
-118 -41 -57 -197 -209 -265 -258 -29 -20 -52 -41 -53 -46 0 -5 -7 -14 -17
-21 -14 -11 -10 -14 30 -30 47 -18 58 -29 35 -38 -7 -2 -10 -7 -6 -11 3 -4 21
0 38 9 18 9 44 15 58 12 18 -3 35 2 52 17 26 23 29 29 32 71 1 14 6 25 9 25 4
0 13 17 20 37 18 54 68 102 224 210 72 50 104 93 70 93 -18 0 -21 50 -3 68 14
14 24 257 11 265 -6 4 -13 4 -17 0z"/>
<path d="M3565 3210 c-3 -11 -3 -25 0 -31 4 -6 -3 -21 -15 -34 -15 -15 -20
-30 -16 -43 4 -11 2 -23 -4 -27 -5 -3 -9 -20 -8 -38 1 -18 -2 -39 -5 -47 -4
-8 -3 -21 2 -29 8 -12 19 -8 63 22 29 20 60 37 69 37 8 0 24 6 34 14 16 12 17
16 6 30 -14 16 -51 22 -51 8 0 -4 5 -13 11 -19 20 -20 -6 -22 -30 -2 -19 16
-21 20 -7 25 21 8 20 23 -1 47 -18 19 -18 20 14 3 38 -19 55 -20 71 -4 10 10
2 23 -35 60 -51 52 -87 62 -98 28z"/>
<path d="M3461 3134 c0 -11 3 -14 6 -6 3 7 2 16 -1 19 -3 4 -6 -2 -5 -13z"/>
<path d="M3721 3099 c-15 -6 -21 -14 -17 -25 3 -9 6 -19 6 -24 0 -5 14 -3 30
3 32 12 38 28 18 45 -8 6 -22 6 -37 1z"/>
<path d="M3441 3056 c-7 -8 -8 -17 -3 -20 6 -3 12 3 15 14 6 24 4 25 -12 6z"/>
<path d="M4850 2933 c-30 -11 -101 -75 -130 -118 -17 -24 -37 -71 -46 -105
-18 -72 -14 -116 5 -50 28 97 56 155 95 195 84 85 162 81 243 -14 86 -99 97
-124 97 -221 0 -75 -3 -91 -29 -138 -55 -101 -172 -163 -264 -140 -100 24
-126 49 -151 150 -19 79 -26 64 -10 -23 20 -107 36 -124 142 -155 87 -26 189
8 266 89 75 78 106 256 61 351 -19 41 -102 129 -159 169 -24 16 -88 22 -120
10z"/>
<path d="M4332 2908 c-7 -7 -12 -17 -12 -24 0 -7 -13 -38 -30 -69 -16 -31 -30
-63 -30 -69 0 -23 -31 -76 -45 -76 -15 0 -21 -23 -30 -117 -4 -35 -11 -60 -16
-57 -5 3 -9 -1 -9 -9 0 -8 -9 -22 -20 -32 -13 -12 -18 -25 -14 -40 7 -28 -23
-56 -37 -34 -6 10 -9 7 -9 -13 0 -15 -8 -32 -17 -37 -10 -6 -13 -11 -8 -11 6
0 -1 -6 -15 -13 -13 -7 -27 -23 -30 -37 -3 -14 -17 -30 -30 -37 -17 -8 -24
-19 -22 -33 2 -15 -2 -20 -17 -20 -12 0 -21 -5 -21 -12 0 -6 -10 -25 -23 -42
-13 -17 -38 -56 -56 -86 -18 -30 -41 -62 -51 -70 -10 -8 -21 -28 -24 -44 -6
-24 11 -11 96 76 129 130 151 155 222 251 82 112 123 191 142 277 15 66 52
177 74 220 4 9 11 31 15 50 4 19 11 40 15 45 6 8 20 75 15 75 0 0 -6 -5 -13
-12z"/>
<path d="M4875 2850 c-3 -5 2 -10 12 -10 10 0 29 -3 43 -6 24 -5 24 -5 6 10
-22 18 -52 21 -61 6z"/>
<path d="M4980 2795 c0 -3 9 -33 20 -66 14 -40 19 -72 14 -95 -9 -50 -24 -41
-24 15 0 28 -4 53 -10 56 -5 3 -10 -3 -10 -14 0 -11 -7 -24 -16 -29 -11 -6
-13 -11 -5 -16 17 -11 14 -66 -4 -66 -9 0 -18 -7 -22 -16 -4 -12 -14 -14 -39
-10 -18 4 -35 2 -39 -4 -4 -6 4 -10 18 -10 14 0 30 -6 36 -14 17 -21 -24 -28
-70 -12 -33 12 -39 12 -39 0 0 -42 128 -43 183 -1 73 55 92 174 41 249 -25 36
-34 44 -34 33z m-10 -245 c0 -5 -2 -10 -4 -10 -2 0 -12 -3 -20 -6 -12 -5 -15
-2 -10 10 7 17 34 22 34 6z"/>
<path d="M2840 2756 c0 -14 5 -26 10 -26 6 0 10 9 10 19 0 11 -4 23 -10 26 -6
4 -10 -5 -10 -19z"/>
<path d="M2110 2721 c0 -5 5 -13 10 -16 6 -3 10 -2 10 4 0 5 -4 13 -10 16 -5
3 -10 2 -10 -4z"/>
<path d="M2800 2697 c0 -25 24 -47 40 -37 13 8 11 11 -7 16 -13 4 -20 11 -16
20 3 8 0 14 -6 14 -6 0 -11 -6 -11 -13z"/>
<path d="M4850 2666 c0 -36 -4 -46 -20 -51 -11 -3 -20 -13 -20 -21 0 -12 4
-12 22 -2 12 7 31 23 41 36 10 12 27 22 38 22 28 0 24 35 -6 48 -46 21 -55 16
-55 -32z"/>
<path d="M2240 2641 c0 -5 7 -11 15 -15 8 -3 15 -1 15 3 0 5 -7 11 -15 15 -8
3 -15 1 -15 -3z"/>
<path d="M2298 2615 c-14 -32 -14 -35 2 -40 10 -3 29 -1 44 5 l27 10 -23 30
c-12 16 -24 30 -28 30 -3 0 -13 -16 -22 -35z"/>
<path d="M1562 2588 c-19 -19 -14 -28 18 -28 23 0 30 -4 30 -20 0 -21 -7 -20
-68 7 -19 8 -36 12 -39 9 -8 -8 84 -46 110 -46 12 0 44 -7 70 -15 26 -8 82
-17 125 -19 67 -5 72 -4 35 5 -26 6 -43 16 -43 25 0 9 -10 14 -29 14 -17 0
-32 4 -35 9 -7 11 -134 71 -150 71 -7 0 -17 -5 -24 -12z m151 -65 c-7 -2 -19
-2 -25 0 -7 3 -2 5 12 5 14 0 19 -2 13 -5z"/>
<path d="M4705 2590 c-3 -5 -1 -10 4 -10 6 0 11 5 11 10 0 6 -2 10 -4 10 -3 0
-8 -4 -11 -10z"/>
<path d="M5010 2480 c0 -13 7 -20 20 -20 13 0 20 7 20 20 0 13 -7 20 -20 20
-13 0 -20 -7 -20 -20z"/>
<path d="M4957 2453 c-13 -12 -7 -43 7 -43 19 0 28 14 20 34 -7 17 -16 20 -27
9z"/>
<path d="M4821 2418 c-10 -25 1 -44 18 -34 14 9 14 43 1 51 -6 3 -14 -4 -19
-17z"/>
<path d="M4893 2432 c-16 -10 -5 -52 13 -52 11 0 13 7 8 28 -8 34 -7 32 -21
24z"/>
<path d="M4760 2420 c0 -5 5 -10 10 -10 6 0 10 5 10 10 0 6 -4 10 -10 10 -5 0
-10 -4 -10 -10z"/>
<path d="M3707 1883 c-10 -9 -9 -23 1 -23 5 0 17 7 28 15 19 14 19 14 -2 15
-11 0 -24 -3 -27 -7z"/>
<path d="M4798 1875 c-2 -3 -29 -7 -59 -9 -30 -2 -59 -5 -64 -5 -17 -2 -119
-100 -112 -107 4 -4 32 0 61 9 78 25 225 42 239 28 6 -6 32 -11 58 -11 32 0
55 -6 73 -21 15 -11 33 -19 41 -16 7 3 19 -1 26 -9 12 -14 69 -16 69 -2 0 4
-17 10 -37 14 -20 4 -42 11 -48 16 -5 5 -43 33 -84 63 -62 46 -81 55 -116 55
-23 0 -44 -2 -47 -5z"/>
<path d="M3670 1840 c0 -5 4 -10 9 -10 6 0 13 5 16 10 3 6 -1 10 -9 10 -9 0
-16 -4 -16 -10z"/>
<path d="M3626 1803 c-4 -10 -39 -43 -78 -73 -39 -30 -92 -76 -118 -101 -45
-44 -49 -45 -101 -43 -57 2 -96 -12 -139 -51 -14 -12 -40 -28 -57 -36 -18 -8
-33 -17 -33 -20 0 -4 -15 -10 -34 -13 -19 -4 -40 -14 -47 -22 -7 -9 -36 -31
-64 -49 -94 -63 -169 -149 -179 -207 -4 -21 -11 -40 -16 -43 -11 -7 -76 29
-110 60 -14 12 -37 25 -52 29 -14 3 -34 9 -45 12 -17 5 -17 5 0 -6 9 -6 17
-22 17 -35 0 -14 4 -25 10 -25 5 0 18 -9 29 -21 13 -14 26 -19 39 -15 12 4 26
0 36 -9 20 -20 21 -81 2 -92 -14 -8 -16 -12 -16 -33 0 -38 -285 -33 -337 6
-14 11 -28 31 -30 44 -5 31 -34 62 -95 101 -49 32 -60 52 -33 63 8 3 15 9 15
13 0 10 -128 157 -139 161 -10 3 -41 -75 -41 -103 -1 -11 -9 -37 -19 -59 -20
-42 -17 -67 13 -147 14 -37 30 -53 104 -102 113 -76 142 -97 232 -161 19 -14
56 -37 82 -50 26 -14 58 -37 73 -51 17 -17 32 -24 44 -20 20 6 145 -37 171
-59 8 -8 47 -24 85 -36 82 -27 100 -40 103 -74 1 -13 9 -46 18 -73 9 -26 16
-71 15 -99 -1 -28 5 -76 13 -105 25 -90 43 -151 62 -206 l17 -53 45 0 c43 0
44 1 38 28 -15 69 -18 183 -6 229 11 45 17 79 23 128 1 11 11 28 22 37 17 14
18 20 7 37 -8 14 -8 21 -2 21 17 0 68 -29 72 -40 2 -6 34 -15 71 -20 52 -6 75
-15 106 -39 21 -17 44 -31 51 -31 29 0 80 -35 104 -71 15 -22 34 -39 45 -39
20 0 127 54 148 76 8 7 31 18 53 24 21 6 63 30 92 53 29 23 72 55 96 70 24 16
56 42 71 59 l28 32 18 -27 c22 -35 37 -25 29 19 -3 19 -2 34 3 34 13 0 53 -91
53 -122 0 -14 20 -73 45 -130 53 -125 64 -171 65 -260 l0 -68 95 0 95 0 0 111
c0 79 -6 134 -21 192 -56 223 -94 305 -187 396 l-65 65 -81 4 c-59 3 -108 -2
-180 -17 -54 -12 -131 -24 -170 -26 -39 -3 -78 -6 -86 -7 -8 0 -26 0 -40 1
-24 2 -24 2 -5 13 11 6 54 37 95 68 41 32 89 64 105 73 17 8 39 25 50 37 27
30 66 48 90 43 50 -11 116 -15 139 -9 33 8 75 74 82 130 4 23 1 74 -4 112 -6
38 -14 96 -17 129 l-6 60 56 59 c50 53 54 61 38 69 -10 6 -31 23 -48 40 -29
28 -33 29 -94 23 -63 -5 -66 -5 -151 44 -70 40 -97 50 -133 50 -25 0 -57 5
-71 11 -20 9 -32 8 -58 -4 -18 -8 -60 -25 -93 -38 -33 -12 -79 -35 -102 -50
-48 -33 -99 -40 -88 -11 3 9 7 21 8 27 1 5 35 40 74 78 40 38 70 73 67 78 -3
5 -1 9 5 9 11 0 61 44 61 54 0 14 -29 5 -34 -11z m164 -253 c0 -5 -5 -10 -11
-10 -18 0 -36 -25 -44 -61 -9 -42 -32 -69 -58 -69 -10 0 -28 -11 -39 -26 -11
-14 -23 -23 -25 -20 -3 3 -15 -1 -25 -9 -11 -7 -27 -11 -34 -8 -22 8 -16 32
11 45 14 6 25 18 25 27 1 19 100 101 122 101 8 0 23 9 33 20 19 21 45 27 45
10z m62 -175 c62 -39 70 -56 61 -142 -6 -57 -31 -90 -59 -79 -14 6 -16 17 -10
80 7 72 6 75 -21 100 -15 14 -32 26 -36 26 -5 0 -16 7 -24 16 -14 13 -14 17
-2 25 22 14 31 11 91 -26z m-1067 -337 c4 -24 11 -51 17 -60 13 -26 -21 -24
-66 3 -42 25 -44 31 -13 44 12 6 23 20 25 33 6 38 30 25 37 -20z m872 -344 c4
-11 -66 -34 -101 -34 -29 0 -16 16 27 32 47 18 69 18 74 2z m-654 -112 c15
-16 14 -20 -7 -46 -26 -33 -51 -28 -42 9 3 13 2 27 -4 30 -18 11 -11 25 13 25
13 0 31 -8 40 -18z"/>
<path d="M2586 1061 c-7 -10 43 -25 52 -16 7 7 -18 25 -35 25 -6 0 -14 -4 -17
-9z"/>
<path d="M2356 664 c-19 -11 -25 -19 -18 -26 17 -17 62 -1 62 22 0 24 -6 24
-44 4z"/>
<path d="M2456 481 c-3 -5 1 -11 9 -15 15 -6 29 7 18 18 -9 9 -21 8 -27 -3z"/>
<path d="M4130 440 c0 -11 6 -20 14 -20 24 0 26 15 5 28 -16 11 -19 9 -19 -8z"/>
<path d="M2117 382 c-18 -19 -31 -139 -19 -159 4 -5 19 -13 35 -17 30 -7 36
-32 10 -40 -10 -3 -2 -3 17 0 19 3 52 8 73 11 36 5 53 23 22 23 -22 0 -18 22
10 49 43 40 23 121 -26 106 -13 -4 -21 -1 -26 12 -4 10 -11 21 -17 25 -20 14
-63 8 -79 -10z m113 -67 c0 -20 -76 -59 -86 -44 -7 13 13 29 37 29 9 0 22 7
29 15 16 19 20 19 20 0z"/>
<path d="M2024 316 c-48 -64 -120 -215 -138 -289 -5 -22 -3 -27 12 -27 20 0
38 34 63 120 8 25 26 58 40 75 22 25 67 151 57 160 -2 2 -17 -16 -34 -39z"/>
<path d="M2530 98 c-25 -40 -34 -73 -25 -87 8 -14 235 -15 235 -2 0 18 -21 23
-49 11 -33 -13 -122 -1 -128 17 -3 9 11 12 48 10 44 -2 54 1 57 15 6 29 -42
68 -83 68 -29 0 -39 -6 -55 -32z"/>
<path d="M2169 77 c-14 -17 -28 -43 -32 -56 -6 -23 -5 -24 54 -18 67 6 100 24
77 41 -8 6 -23 23 -32 39 -24 35 -35 34 -67 -6z"/>
<path d="M5888 3 c12 -2 30 -2 40 0 9 3 -1 5 -23 4 -22 0 -30 -2 -17 -4z"/>
<path d="M6188 3 c29 -2 74 -2 100 0 26 2 2 3 -53 3 -55 0 -76 -1 -47 -3z"/>
</g>
</svg>
